<svg width="48" height="48" viewBox="0 0 48 48" fill="none" xmlns="http://www.w3.org/2000/svg">
<path d="M23.0023 2.46428V17.2097C23.0023 19.7811 24.2074 21.0068 26.7789 21.0068H41.3237V39.2477C41.3237 43.4263 39.2546 45.5357 35.0957 45.5357H13.7614C9.62316 45.5357 7.53345 43.4468 7.53345 39.2477V8.77199C7.53345 4.59342 9.62316 2.46428 13.7614 2.46428H23.0023ZM24.4337 33.0874C19.9303 33.0874 17.1283 36.1757 17.1283 38.4137C17.1283 39.1774 17.6143 39.5674 18.9849 39.5674H29.8809C31.2429 39.5674 31.7289 39.1774 31.7289 38.4137C31.7289 36.1766 28.926 33.0874 24.4329 33.0874M24.4329 23.97C22.5754 23.97 20.9614 25.5926 20.9614 27.7183C20.9614 29.8697 22.5754 31.5351 24.4329 31.5351C26.2972 31.5351 27.9017 29.8689 27.9017 27.7003C27.9017 25.5574 26.2894 23.97 24.4329 23.97ZM25.7323 2.68542C26.5766 2.82599 27.4209 3.40885 28.344 4.37228L39.4354 15.6428C40.3792 16.6269 40.962 17.4309 41.1026 18.2546H26.8397C26.1163 18.2546 25.734 17.8928 25.734 17.1694L25.7323 2.68542Z" fill="#083B9C"/>
</svg>
