<svg width="48" height="48" viewBox="0 0 48 48" fill="none" xmlns="http://www.w3.org/2000/svg">
<path d="M22.6 16.6L18.4 12.4C18 12 17.8 11.5333 17.8 11C17.8 10.4667 18 10 18.4 9.6L22.6 5.4C23 5 23.4667 4.8 24 4.8C24.5333 4.8 25 5 25.4 5.4L29.6 9.6C30 10 30.2 10.4667 30.2 11C30.2 11.5333 30 12 29.6 12.4L25.4 16.6C25 17 24.5333 17.2 24 17.2C23.4667 17.2 23 17 22.6 16.6ZM4 40C3.43333 40 2.95867 39.808 2.576 39.424C2.19333 39.04 2.00133 38.5653 2 38V32C2 30.8667 2.392 29.9167 3.176 29.15C3.96 28.3833 4.90133 28 6 28H12.55C13.2167 28 13.85 28.1667 14.45 28.5C15.05 28.8333 15.5333 29.2833 15.9 29.85C16.8667 31.15 18.0587 32.1667 19.476 32.9C20.8933 33.6333 22.4013 34 24 34C25.6333 34 27.1587 33.6333 28.576 32.9C29.9933 32.1667 31.168 31.15 32.1 29.85C32.5333 29.2833 33.042 28.8333 33.626 28.5C34.21 28.1667 34.818 28 35.45 28H42C43.1333 28 44.0833 28.3833 44.85 29.15C45.6167 29.9167 46 30.8667 46 32V38C46 38.5667 45.808 39.042 45.424 39.426C45.04 39.81 44.5653 40.0013 44 40H34C33.4333 40 32.9587 39.808 32.576 39.424C32.1933 39.04 32.0013 38.5653 32 38V35.45C30.8333 36.2833 29.5747 36.9167 28.224 37.35C26.8733 37.7833 25.4653 38 24 38C22.5667 38 21.1667 37.7753 19.8 37.326C18.4333 36.8767 17.1667 36.2347 16 35.4V38C16 38.5667 15.808 39.042 15.424 39.426C15.04 39.81 14.5653 40.0013 14 40H4ZM8 26C6.33333 26 4.91667 25.4167 3.75 24.25C2.58333 23.0833 2 21.6667 2 20C2 18.3 2.58333 16.8753 3.75 15.726C4.91667 14.5767 6.33333 14.0013 8 14C9.7 14 11.1253 14.5753 12.276 15.726C13.4267 16.8767 14.0013 18.3013 14 20C14 21.6667 13.4253 23.0833 12.276 24.25C11.1267 25.4167 9.70133 26 8 26ZM40 26C38.3333 26 36.9167 25.4167 35.75 24.25C34.5833 23.0833 34 21.6667 34 20C34 18.3 34.5833 16.8753 35.75 15.726C36.9167 14.5767 38.3333 14.0013 40 14C41.7 14 43.1253 14.5753 44.276 15.726C45.4267 16.8767 46.0013 18.3013 46 20C46 21.6667 45.4253 23.0833 44.276 24.25C43.1267 25.4167 41.7013 26 40 26Z" fill="#083B9C"/>
</svg>
