<svg width="48" height="48" viewBox="0 0 48 48" fill="none" xmlns="http://www.w3.org/2000/svg">
<path d="M24 4.8C21.4539 4.8 19.0121 5.81143 17.2117 7.61178C15.4114 9.41213 14.4 11.8539 14.4 14.4C14.4 16.9461 15.4114 19.3879 17.2117 21.1882C19.0121 22.9886 21.4539 24 24 24C26.546 24 28.9878 22.9886 30.7882 21.1882C32.5885 19.3879 33.6 16.9461 33.6 14.4C33.6 11.8539 32.5885 9.41213 30.7882 7.61178C28.9878 5.81143 26.546 4.8 24 4.8ZM12.0216 26.4C11.3895 26.3975 10.7631 26.5197 10.1784 26.7598C9.59369 26.9999 9.06212 27.353 8.61417 27.7989C8.16622 28.2449 7.81071 28.7749 7.56803 29.3585C7.32535 29.9421 7.20026 30.5679 7.19995 31.2C7.19995 35.2584 9.19915 38.3184 12.324 40.3128C14.9112 41.9616 18.2568 42.8808 21.9 43.1304L22.776 40.2552C21.9985 38.5418 21.5975 36.6816 21.6 34.8C21.6 31.608 22.7328 28.68 24.6168 26.4H12.0216ZM45.6 34.8C45.6003 36.6798 45.11 38.5272 44.1775 40.1595C43.245 41.7917 41.9026 43.1523 40.283 44.1067C38.6635 45.0611 36.8228 45.5762 34.9432 45.6011C33.0635 45.626 31.2098 45.1599 29.5656 44.2488L25.2696 45.5544C25.0996 45.605 24.9191 45.6088 24.7471 45.5653C24.5752 45.5218 24.4182 45.4326 24.2928 45.3072C24.1674 45.1818 24.0782 45.0248 24.0347 44.8528C23.9911 44.6809 23.9949 44.5004 24.0456 44.3304L25.3512 40.0368C24.5529 38.5949 24.0953 36.9894 24.0133 35.3433C23.9313 33.6972 24.2272 32.0542 24.8782 30.5401C25.5292 29.026 26.5181 27.681 27.7691 26.6081C29.0202 25.5352 30.5002 24.7628 32.0958 24.3501C33.6914 23.9375 35.3603 23.8955 36.9747 24.2273C38.589 24.5592 40.106 25.2561 41.4095 26.2648C42.7129 27.2734 43.7682 28.567 44.4946 30.0464C45.2209 31.5258 45.599 33.1519 45.6 34.8ZM30 31.2C29.6817 31.2 29.3765 31.3264 29.1514 31.5515C28.9264 31.7765 28.8 32.0817 28.8 32.4C28.8 32.7183 28.9264 33.0235 29.1514 33.2485C29.3765 33.4736 29.6817 33.6 30 33.6H39.6C39.9182 33.6 40.2234 33.4736 40.4485 33.2485C40.6735 33.0235 40.8 32.7183 40.8 32.4C40.8 32.0817 40.6735 31.7765 40.4485 31.5515C40.2234 31.3264 39.9182 31.2 39.6 31.2H30ZM28.8 37.2C28.8 37.5183 28.9264 37.8235 29.1514 38.0485C29.3765 38.2736 29.6817 38.4 30 38.4H34.8C35.1182 38.4 35.4234 38.2736 35.6485 38.0485C35.8735 37.8235 36 37.5183 36 37.2C36 36.8817 35.8735 36.5765 35.6485 36.3515C35.4234 36.1264 35.1182 36 34.8 36H30C29.6817 36 29.3765 36.1264 29.1514 36.3515C28.9264 36.5765 28.8 36.8817 28.8 37.2Z" fill="#083B9C"/>
</svg>
