<svg width="80" height="64" viewBox="0 0 80 64" fill="none" xmlns="http://www.w3.org/2000/svg">
<rect x="0.5" y="0.5" width="79" height="63" rx="15.5" fill="#F8FBFB"/>
<rect x="0.5" y="0.5" width="79" height="63" rx="15.5" stroke="#C3CAD2"/>
<g clip-path="url(#clip0_112_1102)">
<path fill-rule="evenodd" clip-rule="evenodd" d="M31.0539 13.314C33.5538 12.6699 36.183 12.7294 38.6511 13.486C41.1193 14.2426 43.3302 15.6668 45.0396 17.6011C46.749 19.5355 47.8904 21.9049 48.3377 24.4473C48.7849 26.9897 48.5206 29.6063 47.5739 32.008L56.7719 39.794C57.4695 40.3835 58.0372 41.1114 58.4389 41.9316C58.8407 42.7518 59.0679 43.6465 59.1061 44.559C59.1443 45.4715 58.9926 46.382 58.6608 47.2329C58.329 48.0839 57.8241 48.8566 57.1783 49.5024C56.5324 50.1481 55.7595 50.6528 54.9085 50.9845C54.0575 51.3161 53.147 51.4675 52.2344 51.4291C51.3219 51.3908 50.4273 51.1634 49.6072 50.7614C48.7871 50.3595 48.0593 49.7917 47.4699 49.094L39.6879 39.9C37.286 40.8482 34.6686 41.1137 32.1252 40.6672C29.5818 40.2206 27.2114 39.0795 25.2761 37.3698C23.3408 35.6601 21.916 33.4485 21.1592 30.9796C20.4024 28.5106 20.3432 25.8805 20.9879 23.38C21.0788 23.0286 21.2627 22.7083 21.5203 22.4525C21.7778 22.1968 22.0995 22.0152 22.4515 21.9268C22.8034 21.8384 23.1727 21.8465 23.5205 21.9502C23.8683 22.0538 24.1818 22.2493 24.4279 22.516L30.5179 29.13L35.1119 27.44L36.8059 22.84L30.1879 16.76C29.9196 16.5139 29.7228 16.1999 29.6183 15.8512C29.5138 15.5025 29.5055 15.132 29.5942 14.7789C29.6829 14.4259 29.8654 14.1034 30.1224 13.8455C30.3793 13.5876 30.7012 13.404 31.0539 13.314Z" fill="#C3CAD2"/>
</g>
<defs>
<clipPath id="clip0_112_1102">
<rect width="48" height="48" fill="white" transform="translate(16 8)"/>
</clipPath>
</defs>
</svg>
