<svg width="80" height="64" viewBox="0 0 80 64" fill="none" xmlns="http://www.w3.org/2000/svg">
<rect x="0.5" y="0.5" width="79" height="63" rx="15.5" fill="#F8FBFB"/>
<rect x="0.5" y="0.5" width="79" height="63" rx="15.5" stroke="#C3CAD2"/>
<path d="M42.1209 12.5C41.5584 11.9376 40.7954 11.6216 39.9999 11.6216C39.2045 11.6216 38.4415 11.9376 37.8789 12.5L17.9379 32.438C17.7985 32.5775 17.6878 32.743 17.6124 32.9253C17.5369 33.1075 17.498 33.3028 17.498 33.5C17.498 33.6972 17.5369 33.8925 17.6124 34.0748C17.6878 34.257 17.7985 34.4225 17.9379 34.562C18.2196 34.8437 18.6016 35.0019 18.9999 35.0019C19.1972 35.0019 19.3925 34.963 19.5747 34.8876C19.7569 34.8121 19.9225 34.7015 20.0619 34.562L39.9999 14.621L59.9379 34.562C60.2196 34.8437 60.6016 35.0019 60.9999 35.0019C61.3983 35.0019 61.7803 34.8437 62.0619 34.562C62.3436 34.2803 62.5018 33.8983 62.5018 33.5C62.5018 33.1017 62.3436 32.7197 62.0619 32.438L54.9999 25.379V15.5C54.9999 15.1022 54.8419 14.7206 54.5606 14.4393C54.2793 14.158 53.8978 14 53.4999 14H50.4999C50.1021 14 49.7206 14.158 49.4393 14.4393C49.158 14.7206 48.9999 15.1022 48.9999 15.5V19.379L42.1209 12.5Z" fill="#C3CAD2"/>
<path d="M40 17.879L58 35.879V48.5C58 49.6935 57.5259 50.8381 56.682 51.682C55.8381 52.5259 54.6935 53 53.5 53H26.5C25.3065 53 24.1619 52.5259 23.318 51.682C22.4741 50.8381 22 49.6935 22 48.5V35.879L40 17.879Z" fill="#C3CAD2"/>
</svg>
